<?xml version="1.0" standalone="no"?>
<!DOCTYPE svg PUBLIC "-//W3C//DTD SVG 20010904//EN"
 "http://www.w3.org/TR/2001/REC-SVG-20010904/DTD/svg10.dtd">
<svg version="1.0" xmlns="http://www.w3.org/2000/svg"
 width="512.000000pt" height="512.000000pt" viewBox="0 0 512.000000 512.000000"
 preserveAspectRatio="xMidYMid meet">

<g transform="translate(0.000000,512.000000) scale(0.100000,-0.100000)"
fill="currentcolor" stroke="none">
<path d="M2084 4865 c-38 -26 -47 -66 -41 -188 3 -61 9 -125 13 -141 7 -28 6
-28 -27 -20 -19 5 -72 9 -119 9 -71 0 -95 -5 -142 -27 -74 -34 -152 -112 -186
-186 -24 -51 -27 -68 -27 -170 0 -93 -3 -112 -15 -112 -31 0 -122 -51 -168
-94 -88 -82 -134 -215 -114 -327 6 -30 8 -57 6 -60 -2 -4 -19 -10 -38 -13 -51
-10 -151 -79 -190 -133 -68 -91 -93 -225 -61 -329 18 -61 18 -64 0 -64 -31 0
-119 -53 -164 -98 -113 -113 -140 -283 -70 -430 14 -29 71 -96 146 -172 l122
-126 -490 -489 c-270 -270 -497 -502 -505 -517 -23 -44 -17 -77 20 -114 37
-37 70 -43 114 -20 15 8 249 237 521 510 l494 494 51 -21 c38 -15 73 -21 136
-21 75 0 93 4 152 31 122 57 204 169 215 293 6 66 4 64 90 73 101 11 216 95
267 195 14 27 31 79 37 116 13 72 10 69 92 80 101 13 220 103 266 201 13 28
29 80 34 116 l11 67 56 5 c121 11 237 95 293 215 29 60 32 77 32 158 0 86 -2
96 -38 165 l-38 74 348 346 c373 372 384 381 466 365 78 -15 147 -96 147 -173
0 -69 -27 -104 -280 -358 -223 -225 -250 -255 -250 -284 0 -70 62 -124 122
-106 13 4 115 99 228 210 222 219 242 233 326 220 49 -7 105 -49 130 -96 16
-33 18 -106 3 -146 -5 -15 -102 -120 -215 -234 -181 -182 -204 -209 -204 -238
0 -70 57 -121 117 -106 17 4 86 64 178 155 90 89 166 155 188 165 129 54 263
-53 242 -193 -7 -44 -17 -57 -165 -207 -96 -97 -161 -171 -165 -188 -19 -76
46 -141 121 -123 15 4 68 47 119 96 98 95 126 108 206 97 47 -6 103 -46 125
-88 20 -40 20 -118 0 -161 -22 -46 -1062 -1080 -1151 -1145 -210 -151 -442
-239 -692 -262 -115 -11 -130 -18 -202 -97 -24 -27 -228 -234 -453 -459 -394
-396 -408 -412 -408 -449 0 -55 43 -96 101 -96 l43 0 342 341 341 341 94 -46
c123 -59 228 -86 364 -93 l110 -5 270 -269 c267 -265 271 -269 312 -269 63 0
98 34 98 94 l0 46 -298 297 -297 298 -143 6 c-146 7 -233 26 -321 71 l-38 20
31 32 c29 29 40 34 103 40 170 16 369 76 540 163 205 104 241 135 841 733 651
647 622 611 622 790 0 96 -3 110 -28 159 -40 74 -106 142 -171 174 -30 15 -60
27 -65 27 -14 0 -14 -3 5 72 49 189 -66 394 -252 448 l-41 12 5 97 c3 81 1
105 -17 153 -42 108 -118 184 -231 226 -49 18 -54 23 -50 43 3 13 5 61 4 105
0 71 -4 90 -32 147 -41 82 -120 157 -200 188 -74 29 -185 31 -264 5 l-57 -19
-56 52 c-63 57 -189 123 -280 146 -87 22 -970 22 -1001 0z m983 -202 c67 -22
145 -68 181 -106 l21 -23 -297 -297 -297 -297 -132 132 -133 133 178 -3 c112
-2 191 0 214 8 66 19 90 104 44 157 l-24 28 -199 5 c-224 6 -247 12 -316 89
-47 52 -83 171 -59 195 4 4 176 6 382 4 345 -4 380 -6 437 -25z m-1080 -343
c41 -16 671 -646 694 -695 74 -158 -105 -312 -252 -216 -60 39 -655 639 -668
674 -17 44 -13 114 9 157 37 73 137 109 217 80z m-282 -499 c26 -12 135 -115
311 -292 290 -292 302 -309 291 -391 -7 -51 -42 -101 -88 -127 -44 -25 -127
-28 -167 -7 -15 8 -152 140 -304 293 -239 240 -278 284 -288 321 -22 83 13
161 90 200 54 27 102 28 155 3z m-274 -500 c24 -15 139 -125 255 -242 191
-194 212 -218 223 -262 32 -129 -86 -250 -211 -217 -37 10 -77 46 -277 243
-128 128 -239 246 -247 264 -68 157 112 307 257 214z m-296 -506 c34 -7 345
-308 372 -359 20 -38 20 -114 0 -153 -35 -66 -123 -112 -190 -98 -54 12 -87
38 -243 197 -163 165 -182 195 -170 272 12 73 65 129 140 147 31 7 36 6 91 -6z"/>
<path d="M4484 2070 c-55 -22 -72 -108 -31 -155 14 -17 36 -28 63 -32 36 -5
46 -1 75 25 28 25 34 37 34 72 0 72 -72 118 -141 90z"/>
<path d="M4709 1801 c-23 -23 -29 -38 -29 -72 0 -40 5 -47 118 -162 187 -191
223 -208 288 -143 60 60 46 102 -73 216 -184 178 -199 190 -238 190 -27 0 -44
-8 -66 -29z"/>
</g>
</svg>
