<svg xmlns="http://www.w3.org/2000/svg" viewBox="0 0 576 512"><!--!Font Awesome Pro 6.7.2 by @fontawesome - https://fontawesome.com License - https://fontawesome.com/license (Commercial License) Copyright 2025 Fonticons, Inc.--><path d="M160 192h48v48a16 16 0 0 0 16 16h96a16 16 0 0 0 16-16V192h48a16 16 0 0 0 16-16V80a16 16 0 0 0 -16-16H336V16A16 16 0 0 0 320 0H224a16 16 0 0 0 -16 16V64H160a16 16 0 0 0 -16 16v96A16 16 0 0 0 160 192zm16-96h64V32h64V96h64v64H304v64H240V160H176zM558.3 333.5a52.7 52.7 0 0 0 -35.2-13.4 55.3 55.3 0 0 0 -34.6 12.2l-61.6 49.3a10.7 10.7 0 0 1 -6.7 2.3h-41.6a55.7 55.7 0 0 0 4.8-32.3c-4-27.9-29.6-47.7-57.8-47.7H181.3a95.6 95.6 0 0 0 -57.6 19.2l-38.4 28.8H8a8 8 0 0 0 -8 8v16a8 8 0 0 0 8 8H96l46.9-35.2a64.2 64.2 0 0 1 38.4-12.8H328a24 24 0 0 1 0 48H240a16 16 0 0 0 0 32H420.2a43.1 43.1 0 0 0 26.7-9.3l61.6-49.2a23.4 23.4 0 0 1 14.6-5.2 20.5 20.5 0 0 1 13.8 5.2A21.3 21.3 0 0 1 536 390L435.2 470.7a42.5 42.5 0 0 1 -26.7 9.3H8a8 8 0 0 0 -8 8v16a8 8 0 0 0 8 8H408.5a74.3 74.3 0 0 0 46.6-16.4L556 414.9a53.4 53.4 0 0 0 2.3-81.4z"/></svg>