<svg xmlns="http://www.w3.org/2000/svg" viewBox="0 0 448 512"><!--!Font Awesome Free 6.7.2 by @fontawesome - https://fontawesome.com License - https://fontawesome.com/license/free Copyright 2025 Fonticons, Inc.--><path d="M319.4 320 224 415.4 128.6 320C57.1 323.1 0 381.6 0 453.8A58.2 58.2 0 0 0 58.2 512H389.8A58.2 58.2 0 0 0 448 453.8C448 381.6 390.9 323.1 319.4 320zM224 304A128 128 0 0 0 352 176V65.8a32 32 0 0 0 -20.8-30L246.5 4.1a64 64 0 0 0 -44.9 0L116.8 35.9A32 32 0 0 0 96 65.8V176A128 128 0 0 0 224 304zM184 71.7a5 5 0 0 1 5-5h21.7V45a5 5 0 0 1 5-5h16.7a5 5 0 0 1 5 5V66.7H259a5 5 0 0 1 5 5V88.3a5 5 0 0 1 -5 5H237.3V115a5 5 0 0 1 -5 5H215.7a5 5 0 0 1 -5-5V93.3H189a5 5 0 0 1 -5-5zM144 160H304v16a80 80 0 0 1 -160 0z"/></svg>