<svg xmlns="http://www.w3.org/2000/svg" viewBox="0 0 576 512"><!--!Font Awesome Free 6.7.2 by @fontawesome - https://fontawesome.com License - https://fontawesome.com/license/free Copyright 2025 Fonticons, Inc.--><path d="M288 115L69.5 307.7c-1.6 1.5-3.7 2.1-5.5 3.4V496a16 16 0 0 0 16 16h416a16 16 0 0 0 16-16V311.1c-1.7-1.2-3.7-1.8-5.3-3.2zm96 261a8 8 0 0 1 -8 8h-56v56a8 8 0 0 1 -8 8h-48a8 8 0 0 1 -8-8v-56h-56a8 8 0 0 1 -8-8v-48a8 8 0 0 1 8-8h56v-56a8 8 0 0 1 8-8h48a8 8 0 0 1 8 8v56h56a8 8 0 0 1 8 8zm186.7-139.7l-255.9-226a39.9 39.9 0 0 0 -53.5 0l-256 226a16 16 0 0 0 -1.2 22.6L25.5 282.7a16 16 0 0 0 22.6 1.2L277.4 81.6a16 16 0 0 1 21.2 0L527.9 283.9a16 16 0 0 0 22.6-1.2l21.4-23.8a16 16 0 0 0 -1.2-22.6z"/></svg>