<svg xmlns="http://www.w3.org/2000/svg" viewBox="0 0 640 512"><!--!Font Awesome Free 6.7.2 by @fontawesome - https://fontawesome.com License - https://fontawesome.com/license/free Copyright 2025 Fonticons, Inc.--><path d="M480 320a96 96 0 1 0 -96-96 96 96 0 0 0 96 96zm48 32a22.9 22.9 0 0 0 -7.1 1.1 124.8 124.8 0 0 1 -81.9 0A22.8 22.8 0 0 0 432 352a112 112 0 0 0 -112 112.6c.1 26.3 21.7 47.4 48 47.4h224c26.3 0 47.9-21.1 48-47.4A112 112 0 0 0 528 352zm-198.1 10.5A145.2 145.2 0 0 1 352 344.6V128a32 32 0 0 0 -32-32h-32V32a32 32 0 0 0 -32-32H96a32 32 0 0 0 -32 32v64H32a32 32 0 0 0 -32 32v368a16 16 0 0 0 16 16h288.3A78.6 78.6 0 0 1 288 464.8a143.1 143.1 0 0 1 41.9-102.3zM144 404a12 12 0 0 1 -12 12H92a12 12 0 0 1 -12-12v-40a12 12 0 0 1 12-12h40a12 12 0 0 1 12 12zm0-128a12 12 0 0 1 -12 12H92a12 12 0 0 1 -12-12v-40a12 12 0 0 1 12-12h40a12 12 0 0 1 12 12zm48-122a6 6 0 0 1 -6 6h-20a6 6 0 0 1 -6-6v-26h-26a6 6 0 0 1 -6-6v-20a6 6 0 0 1 6-6h26V70a6 6 0 0 1 6-6h20a6 6 0 0 1 6 6v26h26a6 6 0 0 1 6 6v20a6 6 0 0 1 -6 6h-26zm80 250a12 12 0 0 1 -12 12h-40a12 12 0 0 1 -12-12v-40a12 12 0 0 1 12-12h40a12 12 0 0 1 12 12zm0-128a12 12 0 0 1 -12 12h-40a12 12 0 0 1 -12-12v-40a12 12 0 0 1 12-12h40a12 12 0 0 1 12 12z"/></svg>