<?xml version="1.0" standalone="no"?>
<!DOCTYPE svg PUBLIC "-//W3C//DTD SVG 20010904//EN"
 "http://www.w3.org/TR/2001/REC-SVG-20010904/DTD/svg10.dtd">
<svg version="1.0" xmlns="http://www.w3.org/2000/svg"
 width="512.000000pt" height="512.000000pt" viewBox="0 0 512.000000 512.000000"
 preserveAspectRatio="xMidYMid meet">

<g transform="translate(0.000000,512.000000) scale(0.100000,-0.100000)"
fill="currentcolor" stroke="none">
<path d="M2135 5106 c-97 -16 -177 -38 -270 -76 -62 -25 -86 -29 -210 -33
-162 -6 -223 -20 -350 -82 -206 -99 -366 -295 -427 -523 -17 -65 -21 -123 -28
-367 -4 -175 -12 -308 -19 -335 -8 -28 -11 -82 -8 -142 3 -84 8 -106 36 -162
50 -103 130 -161 263 -195 l71 -18 22 -59 c82 -218 238 -431 448 -611 l47 -40
0 -116 c0 -64 -4 -119 -10 -122 -5 -3 -67 -21 -137 -40 -202 -55 -439 -135
-462 -156 -42 -40 -14 -129 41 -129 10 0 65 16 121 36 93 32 439 134 457 134
4 0 13 -19 20 -42 17 -61 41 -105 93 -173 141 -186 393 -274 621 -215 191 49
352 192 417 372 12 32 23 58 25 58 8 0 234 -62 311 -86 l82 -24 -113 -113
c-213 -212 -311 -431 -323 -722 -11 -266 61 -491 227 -710 l49 -65 -1014 0
-1015 0 0 225 0 226 -25 24 c-31 32 -69 32 -100 0 l-25 -24 0 -226 0 -225
-340 0 -340 0 0 22 c0 45 163 857 185 921 54 158 180 311 351 425 50 33 94 68
98 77 21 56 -9 105 -63 105 -43 0 -179 -90 -280 -184 -110 -104 -206 -249
-251 -381 -33 -97 -203 -980 -196 -1019 8 -44 41 -85 82 -102 28 -12 287 -14
1570 -14 l1537 0 46 -30 c270 -173 619 -215 925 -111 567 193 868 808 673
1376 -37 106 -74 174 -102 185 -43 16 -104 -19 -105 -61 0 -8 16 -52 35 -96
82 -189 102 -408 56 -598 -28 -117 -105 -273 -181 -369 -204 -256 -549 -388
-873 -331 -363 63 -645 319 -749 681 -32 112 -32 351 0 467 148 537 705 826
1223 637 100 -36 194 -91 284 -165 37 -30 74 -55 81 -55 51 0 93 56 75 102
-10 26 -84 93 -162 146 -288 194 -672 235 -995 106 l-67 -26 -146 45 c-80 26
-206 63 -278 83 l-133 38 0 122 0 121 90 78 c179 153 326 359 405 569 l22 59
73 18 c124 32 213 99 261 195 21 42 24 66 27 172 3 84 0 133 -9 155 -9 22 -15
126 -20 332 -7 334 -11 359 -79 501 -78 163 -211 295 -374 374 -115 55 -190
72 -356 80 -134 7 -152 10 -235 43 -49 19 -126 43 -170 52 -106 22 -309 28
-410 11z m312 -147 c396 -54 729 -356 834 -757 14 -50 23 -124 26 -213 l6
-137 -99 -64 c-55 -35 -113 -72 -130 -82 l-30 -18 -55 54 c-66 66 -141 98
-229 98 -123 0 -245 -77 -291 -185 l-24 -55 -146 0 -146 0 -18 47 c-26 68
-106 144 -178 171 -123 47 -249 19 -346 -75 -30 -29 -60 -52 -66 -49 -6 2 -63
38 -128 80 l-117 76 0 112 c1 614 532 1080 1137 997z m-963 -191 c-200 -207
-309 -462 -321 -745 l-6 -133 -36 0 c-20 0 -53 -3 -73 -6 l-38 -7 0 208 c0
232 8 282 65 400 59 121 164 229 285 290 56 29 153 63 179 64 8 1 -17 -32 -55
-71z m1657 56 c197 -58 366 -221 436 -421 26 -74 28 -89 31 -302 l4 -224 -39
6 c-21 4 -55 7 -75 7 l-38 0 0 89 c0 284 -114 563 -320 784 -39 42 -68 77 -63
77 5 0 34 -7 64 -16z m-1983 -1286 c3 -227 6 -220 -84 -168 -75 43 -97 84
-102 190 -3 68 -1 94 13 119 20 40 66 61 125 58 l45 -2 3 -197z m2414 192 c58
-16 68 -39 68 -153 0 -106 -9 -133 -57 -179 -26 -25 -90 -58 -113 -58 -11 0
-15 382 -3 393 10 10 63 8 105 -3z m-1637 -63 c113 -64 112 -227 -3 -294 -81
-48 -195 -15 -238 69 -33 64 -16 155 38 205 51 48 138 57 203 20z m920 0 c112
-63 112 -231 0 -294 -75 -42 -177 -21 -226 48 -27 38 -36 113 -20 161 31 94
154 137 246 85z m-1377 -104 c49 -32 52 -36 52 -76 0 -54 40 -141 88 -190 57
-60 124 -90 212 -95 138 -8 251 59 310 184 l31 64 138 0 138 0 32 -64 c100
-204 358 -250 517 -92 55 56 94 139 94 202 0 33 5 37 98 97 53 35 103 67 110
71 12 7 13 -25 10 -185 -4 -188 -5 -197 -36 -289 -170 -492 -718 -876 -1105
-775 -280 73 -556 288 -721 562 -106 178 -136 291 -136 526 l0 168 58 -37 c31
-21 81 -52 110 -71z m443 -1219 c28 -14 92 -39 142 -56 77 -25 112 -31 217
-35 110 -4 136 -2 221 20 53 14 131 41 174 61 43 20 80 36 83 36 2 0 3 -58 0
-129 -4 -128 -4 -129 -46 -214 -86 -174 -249 -268 -439 -254 -128 10 -247 78
-329 190 -62 83 -84 162 -84 298 0 60 2 109 5 109 3 0 28 -11 56 -26z"/>
<path d="M2115 4630 c-96 -21 -125 -40 -125 -87 0 -28 41 -73 67 -73 10 0 50
7 88 15 88 19 240 19 325 0 85 -19 104 -18 128 3 36 30 38 67 5 100 -58 58
-308 79 -488 42z"/>
<path d="M2090 4380 c-166 -23 -321 -62 -341 -86 -22 -27 -16 -84 11 -106 28
-22 29 -22 205 16 228 51 495 46 743 -11 l112 -27 28 21 c18 14 28 31 30 54 5
59 -24 76 -190 111 -124 25 -169 30 -338 33 -107 2 -224 0 -260 -5z"/>
<path d="M2042 2887 c-35 -37 -29 -74 21 -122 137 -131 351 -130 495 3 48 44
53 75 21 116 -28 35 -70 34 -118 -3 -59 -47 -99 -62 -157 -62 -58 0 -119 27
-158 70 -26 29 -76 28 -104 -2z"/>
<path d="M3801 1698 c-46 -13 -77 -35 -104 -72 -19 -27 -23 -48 -27 -156 l-5
-125 -126 -5 c-117 -5 -128 -7 -161 -32 -54 -41 -71 -88 -76 -201 -5 -106 7
-174 39 -219 36 -50 73 -63 204 -68 l120 -5 5 -120 c6 -141 20 -176 91 -215
40 -23 55 -25 159 -25 136 0 158 5 205 47 54 47 59 63 65 193 l5 120 120 5
c140 6 175 21 215 92 23 39 25 53 25 168 0 115 -2 129 -25 168 -40 71 -75 86
-215 92 l-120 5 -5 120 c-3 66 -11 130 -17 141 -20 36 -80 82 -120 93 -47 13
-206 13 -252 -1z m227 -150 c8 -8 12 -57 12 -154 0 -137 1 -144 24 -171 l24
-28 149 -3 c176 -4 173 -2 173 -110 0 -115 4 -112 -160 -112 -149 0 -181 -7
-199 -47 -6 -14 -11 -82 -11 -161 0 -94 -4 -142 -12 -150 -8 -8 -45 -12 -99
-12 -119 0 -119 0 -119 186 0 142 0 143 -26 163 -24 19 -40 21 -168 21 -97 0
-146 4 -154 12 -17 17 -16 182 1 196 7 6 77 12 159 14 196 4 188 -4 188 182 0
186 0 186 119 186 54 0 91 -4 99 -12z"/>
</g>
</svg>
